<?xml version="1.0" standalone="no"?>
<!DOCTYPE svg PUBLIC "-//W3C//DTD SVG 20010904//EN"
 "http://www.w3.org/TR/2001/REC-SVG-20010904/DTD/svg10.dtd">
<svg version="1.0" xmlns="http://www.w3.org/2000/svg"
 width="829.000000pt" height="829.000000pt" viewBox="0 0 829.000000 829.000000"
 preserveAspectRatio="xMidYMid meet">
<metadata>
Created by potrace 1.16, written by Peter Selinger 2001-2019
</metadata>
<g transform="translate(0.000000,829.000000) scale(0.100000,-0.100000)"
fill="#000000" stroke="none">
<path d="M4140 7498 c0 -7 -26 -105 -58 -218 -33 -113 -83 -290 -112 -395 -29
-104 -55 -195 -57 -200 -2 -6 20 -16 49 -22 29 -7 83 -21 120 -32 l68 -19 2
449 c2 247 0 449 -4 449 -5 0 -8 -6 -8 -12z"/>
<path d="M3150 6723 c0 -5 28 -30 63 -56 34 -25 101 -76 148 -114 48 -37 135
-106 194 -153 60 -47 134 -105 166 -130 31 -25 91 -71 132 -103 54 -41 76 -65
80 -85 5 -31 64 -245 153 -557 l63 -220 0 587 1 587 -37 11 c-21 5 -112 28
-203 51 -91 22 -259 64 -375 93 -115 29 -244 61 -285 71 -41 9 -81 19 -87 22
-7 2 -13 1 -13 -4z"/>
<path d="M3330 6029 c-124 -93 -294 -220 -377 -282 -84 -61 -153 -114 -153
-118 0 -4 53 6 118 22 64 15 230 55 367 88 138 33 313 75 390 93 77 17 142 33
144 34 1 2 -4 24 -12 51 -8 26 -20 69 -27 95 -11 41 -21 53 -103 117 -50 39
-98 71 -106 70 -9 0 -117 -76 -241 -170z"/>
<path d="M6937 4243 c-13 -13 -7 -43 13 -60 11 -10 20 -24 19 -33 0 -11 -3 -9
-10 5 -7 16 -8 14 -4 -10 9 -47 69 -168 116 -232 73 -102 254 -273 287 -273
20 0 26 189 9 281 -15 85 -61 209 -78 209 -5 0 -8 6 -6 13 1 6 -4 11 -12 9 -8
-2 -11 3 -8 13 4 8 2 15 -4 15 -6 0 -8 4 -4 9 3 5 1 12 -5 16 -5 3 -10 1 -10
-4 0 -7 -49 -11 -144 -11 -136 0 -145 1 -151 20 -3 11 -3 24 0 30 7 11 2 13
-8 3z"/>
<path d="M1355 4200 c-4 -19 -10 -29 -12 -22 -4 9 -43 12 -153 12 -132 0 -150
-2 -158 -17 -5 -10 -7 -24 -5 -31 3 -7 1 -11 -4 -10 -4 2 -10 -1 -12 -7 -3 -5
-10 -16 -17 -22 -18 -19 -54 -133 -65 -210 -10 -69 -3 -220 11 -243 11 -17 53
12 149 104 88 85 160 176 153 195 -3 8 0 11 6 7 21 -13 131 233 119 267 -2 7
-8 -4 -12 -23z"/>
<path d="M565 4141 c39 -39 76 -71 84 -73 8 -2 24 -12 35 -23 l21 -20 7 40 c4
22 7 60 7 85 l1 45 -100 -3 c-66 -2 -100 0 -100 7 0 6 -6 11 -12 11 -7 0 19
-31 57 -69z"/>
<path d="M7585 4113 c4 -43 8 -80 10 -81 10 -11 159 108 176 139 9 18 4 19
-92 19 l-101 0 7 -77z"/>
<path d="M302 3948 c13 -198 122 -414 271 -538 60 -50 160 -104 245 -134 52
-19 52 -19 13 136 -31 123 -87 245 -157 344 -49 70 -172 186 -218 208 -17 7
-56 26 -87 40 -31 14 -60 26 -64 26 -4 0 -5 -37 -3 -82z"/>
<path d="M7904 3991 c-211 -102 -375 -323 -439 -593 -35 -149 -37 -142 38
-114 98 37 146 64 220 123 119 95 215 252 257 417 20 79 27 206 12 206 -4 0
-44 -17 -88 -39z"/>
<path d="M1336 3724 c-50 -64 -125 -204 -152 -284 -16 -45 -19 -84 -18 -215 0
-149 2 -165 27 -229 38 -97 69 -149 79 -134 6 10 8 9 8 -2 0 -8 20 18 44 58
25 43 42 82 39 92 -3 11 3 22 15 29 21 11 40 56 74 176 30 107 33 319 5 410
-25 81 -58 155 -68 155 -5 0 -28 -25 -53 -56z"/>
<path d="M6888 3747 c-67 -141 -83 -352 -39 -527 24 -99 113 -298 137 -307 8
-3 12 -9 9 -14 -3 -4 4 -13 15 -19 11 -6 20 -18 21 -28 0 -9 21 24 45 73 25
50 43 98 40 107 -2 9 1 19 6 20 16 6 22 232 9 314 -13 88 -56 191 -116 286
-46 71 -92 128 -105 128 -3 0 -13 -15 -22 -33z"/>
<path d="M328 3252 c-27 -2 -48 -8 -48 -13 0 -16 68 -119 127 -191 55 -68 198
-186 210 -175 3 4 0 7 -7 7 -7 0 -10 3 -6 7 4 4 17 -5 29 -19 24 -30 86 -52
73 -27 -4 8 2 3 13 -11 11 -14 21 -19 21 -12 0 9 39 12 160 12 154 0 160 1
160 20 0 13 -10 24 -25 30 -14 5 -25 17 -25 28 0 10 -35 52 -77 94 -186 180
-388 264 -605 250z"/>
<path d="M7895 3254 c-162 -18 -227 -39 -349 -113 -99 -60 -258 -204 -249
-226 3 -9 -4 -18 -19 -24 -14 -5 -32 -21 -41 -35 l-17 -26 170 0 c119 0 170
-3 170 -11 0 -8 4 -8 13 -2 6 6 26 13 42 17 35 8 135 72 135 86 0 6 6 9 13 8
6 -2 11 3 9 10 -1 8 2 11 9 6 25 -15 239 249 239 296 0 6 -15 10 -34 10 -19 0
-40 2 -48 3 -7 2 -26 2 -43 1z"/>
<path d="M3152 1388 c6 -18 17 -38 24 -44 8 -6 11 -14 8 -17 -3 -3 2 -18 11
-34 9 -15 14 -20 11 -10 -4 11 -2 16 5 11 6 -3 9 -14 6 -24 -6 -23 20 -63 35
-54 6 4 9 1 6 -7 -14 -40 146 -195 260 -253 107 -54 302 -105 302 -79 0 17
-51 137 -78 183 -40 70 -91 140 -147 202 -53 60 -115 113 -101 88 5 -8 -3 -1
-18 15 -14 17 -25 25 -26 18 0 -6 6 -14 13 -16 6 -3 -56 -6 -140 -6 l-151 -1
-7 30 c-4 17 -10 30 -15 30 -5 0 -4 -15 2 -32z"/>
<path d="M2640 1395 c0 -8 82 -65 94 -65 6 0 4 5 -4 10 -11 7 -12 10 -2 10 8
0 16 -8 19 -19 8 -30 223 -124 242 -106 9 10 -19 95 -38 114 -17 17 -37 20
-143 23 -102 2 -128 6 -142 21 -18 17 -26 21 -26 12z"/>
<path d="M5138 1382 c-6 -21 -10 -22 -152 -22 -88 0 -146 4 -146 10 0 5 -7 7
-15 4 -8 -4 -15 -13 -15 -21 0 -8 -4 -12 -8 -9 -12 7 -114 -98 -105 -109 5 -4
3 -5 -4 -1 -13 7 -104 -117 -146 -199 -25 -48 -67 -150 -67 -161 0 -10 102 7
170 28 170 53 303 151 403 301 61 90 101 171 94 190 -2 6 -6 1 -9 -11z"/>
<path d="M5349 1373 c-20 -52 -42 -143 -37 -149 6 -6 146 40 191 63 15 7 25
18 22 23 -3 6 1 7 9 4 8 -3 23 3 34 13 10 10 25 19 33 21 8 2 23 12 34 23 17
17 17 19 3 13 -10 -3 -18 -10 -18 -15 0 -5 -59 -9 -131 -9 -126 0 -130 1 -124
20 10 30 -4 24 -16 -7z"/>
<path d="M1770 1371 c-76 -13 -128 -31 -134 -46 -3 -8 -11 -15 -18 -15 -9 0
-8 3 2 10 27 17 0 11 -43 -11 -72 -36 -157 -94 -154 -104 2 -5 40 -29 85 -51
147 -75 364 -99 532 -60 74 17 210 80 210 97 0 5 5 9 12 9 12 0 97 61 98 71 0
8 -43 27 -124 55 -79 27 -90 29 -81 12 4 -7 0 -5 -8 5 -10 12 -34 20 -69 23
-98 10 -263 12 -308 5z"/>
<path d="M6243 1370 c-78 -10 -251 -63 -280 -86 -17 -13 -15 -16 22 -49 63
-54 182 -117 259 -138 98 -26 265 -27 376 -3 94 20 260 92 260 112 0 21 -142
103 -234 135 -72 25 -104 30 -208 34 -68 2 -156 0 -195 -5z"/>
<path d="M4075 1033 c-71 -37 -105 -90 -105 -165 0 -132 142 -217 265 -158
127 61 129 255 2 318 -52 26 -119 28 -162 5z"/>
<path d="M2514 1011 c-117 -25 -230 -82 -333 -171 -30 -26 -25 -31 71 -70 98
-39 213 -54 358 -47 129 6 205 29 314 94 60 36 166 128 166 144 0 24 -197 59
-355 65 -101 3 -150 -1 -221 -15z"/>
<path d="M5480 1025 c-8 -2 -49 -8 -90 -15 -91 -14 -180 -38 -180 -48 0 -14
94 -98 145 -130 86 -53 182 -93 247 -102 83 -12 216 -12 302 0 75 11 227 68
233 87 5 16 -104 95 -191 140 -87 44 -233 73 -359 72 -51 -1 -99 -3 -107 -4z"/>
<path d="M3281 745 c-35 -8 -100 -32 -145 -55 -79 -39 -196 -122 -196 -139 0
-14 114 -60 177 -73 32 -6 62 -15 67 -19 13 -12 283 -12 290 0 3 5 25 12 48
15 24 4 66 17 95 30 104 49 268 174 250 192 -4 4 -44 18 -89 32 -72 21 -107
25 -258 28 -128 3 -192 0 -239 -11z"/>
<path d="M4617 750 c-69 -12 -187 -49 -187 -59 0 -22 149 -135 237 -180 23
-11 66 -26 95 -32 29 -6 58 -16 65 -21 21 -17 280 -3 363 19 89 24 170 58 170
72 0 20 -98 92 -185 136 -49 25 -121 52 -160 60 -76 16 -314 19 -398 5z"/>
</g>
</svg>
